<svg xmlns="http://www.w3.org/2000/svg" viewBox="0 0 240.41 230.74"><defs><style>.cls-1{fill:#7e7e7e;}.cls-2{fill:#7e7f7e;}.cls-3{fill:#82817e;}.cls-4{fill:#81807e;}</style></defs><g id="Layer_2" data-name="Layer 2"><g id="opening_page" data-name="opening page"><path class="cls-1" d="M110.42,216.4a66.85,66.85,0,0,1-28.34-31c-5.74-12.93-14.37-23.53-22.86-34.4Q31.52,115.6,3.69,80.27c-4.24-5.38-4.88-11-1.63-17,3.07-5.64,8.09-8.85,13.5-7.09a24.37,24.37,0,0,1,10.91,7.41c14.46,17.83,28.47,36,42.65,54.09,1.26,1.6,2.65,3.11,5.22,6.1,0-6.63.14-11.57,0-16.5-1-29.4-2.15-58.8-3.06-88.2C71,9.89,77.43,2.84,85.72,2.57c8.7-.27,15.52,6.49,15.88,15.91.77,20.29,1.46,40.59,2.21,60.88,0,1.26.3,2.5.62,5.12,4.11-4.58,7.48-8.26,10.76-12q28.82-33,57.61-66.1c6.35-7.26,14.9-8.39,21-3,6.57,5.79,6.75,14.26.3,21.68-9.09,10.45-18.28,20.82-27.39,31.26-1.3,1.49-2.38,3.17-4,5.4,5,1,9,1.68,13,2.65,23.1,5.65,40.76,18.75,53.12,39a32.17,32.17,0,0,1,2.57,5.07c2,5.1,2.13,10.14-2,14.3a12.22,12.22,0,0,1-14.75,2.55,38.82,38.82,0,0,1-13-10.56c-19-25.56-54.2-31.21-78.71-12.21-25,19.4-28.78,55-8.49,79.52,1.24,1.5,2.66,3.67,2.49,5.38-1,9.61-2.44,19.17-3.74,28.74Z"/><path class="cls-2" d="M114.11,219c11.11-6.14,21.34-11.88,31.68-17.43,1.19-.64,3-.46,4.41-.34,29.44,2.56,53.92-15.63,60.3-44.87,2.59-11.84,11.64-17.72,22.07-14.32,5.39,1.75,8.33,5.7,7.77,11.1-6.31,60.29-68.42,96-123.24,67.91C116.45,220.68,115.89,220.19,114.11,219Z"/><path class="cls-3" d="M185.61,145a9.61,9.61,0,1,1-9.44-10A9.51,9.51,0,0,1,185.61,145Z"/><path class="cls-4" d="M139.43,154.33a9.89,9.89,0,0,1-9.6-9.88,9.45,9.45,0,0,1,9.52-9.28,9.58,9.58,0,1,1,.08,19.16Z"/></g></g></svg>